<?xml version="1.0" standalone="no"?>
<!DOCTYPE svg PUBLIC "-//W3C//DTD SVG 20010904//EN"
 "http://www.w3.org/TR/2001/REC-SVG-20010904/DTD/svg10.dtd">
<svg version="1.0" xmlns="http://www.w3.org/2000/svg"
 width="50.000000pt" height="60.000000pt" viewBox="0 0 980.000000 808.000000"
 preserveAspectRatio="xMidYMid meet">
<metadata>
Created by potrace 1.16, written by Peter Selinger 2001-2019
</metadata>
<g transform="translate(0.000000,808.000000) scale(0.100000,-0.100000)"
fill="#000000" stroke="none">
<path d="M4742 8069 c-258 -33 -518 -163 -707 -353 -484 -487 -473 -1266 26
-1741 325 -310 798 -417 1221 -275 563 189 912 756 824 1340 -39 256 -161 496
-346 680 -267 266 -650 397 -1018 349z"/>
<path d="M2415 6416 c-184 -37 -326 -116 -457 -254 -83 -89 -138 -181 -179
-302 -28 -83 -33 -111 -37 -225 -3 -108 -1 -145 17 -220 68 -283 268 -500 551
-596 90 -31 102 -33 245 -33 176 -1 232 11 370 80 172 85 291 206 375 379 66
136 83 212 83 360 -1 143 -23 239 -83 362 -104 211 -304 376 -529 434 -99 26
-265 33 -356 15z"/>
<path d="M7086 6415 c-196 -38 -384 -153 -502 -308 -57 -75 -126 -219 -148
-307 -81 -333 57 -690 338 -878 459 -307 1067 -98 1248 428 31 91 32 101 33
250 0 135 -3 165 -23 230 -72 227 -225 411 -429 514 -143 72 -356 101 -517 71z"/>
<path d="M772 5400 c-103 -27 -166 -64 -248 -145 -112 -111 -164 -233 -164
-390 0 -157 52 -279 164 -390 83 -82 145 -118 252 -145 135 -35 249 -23 379
40 133 64 242 189 286 329 29 91 29 241 0 332 -89 280 -385 443 -669 369z"/>
<path d="M8775 5408 c-77 -14 -203 -80 -263 -137 -237 -228 -237 -584 0 -812
93 -89 247 -149 383 -149 68 0 193 33 258 67 75 40 188 155 226 230 83 165 82
357 -2 518 -38 73 -153 190 -224 228 -107 57 -254 79 -378 55z"/>
<path d="M4641 5294 c-508 -69 -970 -343 -1280 -761 -189 -253 -306 -540 -358
-873 -17 -107 -18 -231 -18 -1885 l0 -1770 1913 -3 1912 -2 0 1777 c0 1513 -3
1793 -15 1882 -112 786 -690 1420 -1459 1601 -209 50 -481 63 -695 34z"/>
<path d="M2401 4449 c-573 -74 -1030 -507 -1138 -1079 -17 -88 -18 -187 -18
-1350 l0 -1255 718 -3 717 -2 0 1333 c0 831 4 1383 10 1463 20 247 92 520 194
738 25 54 46 100 46 102 0 7 -120 36 -207 49 -105 16 -220 17 -322 4z"/>
<path d="M7085 4450 c-78 -12 -198 -41 -208 -49 -4 -4 11 -47 34 -95 85 -181
149 -396 186 -616 15 -95 17 -235 20 -1518 l4 -1412 717 2 717 3 0 1260 c0
1387 3 1313 -62 1519 -121 387 -444 715 -833 846 -168 56 -424 83 -575 60z"/>
<path d="M715 3974 c-154 -33 -299 -112 -427 -233 -132 -125 -207 -250 -262
-436 -19 -68 -20 -97 -23 -982 l-4 -913 470 0 470 0 4 963 c4 1068 1 1014 73
1240 20 62 61 163 91 225 30 62 53 115 51 117 -2 3 -37 11 -77 20 -91 19 -273
18 -366 -1z"/>
<path d="M8715 3974 c-38 -9 -72 -17 -74 -20 -2 -2 21 -57 51 -121 66 -139 90
-203 118 -315 47 -184 50 -236 50 -1200 l0 -908 470 0 471 0 -3 908 c-3 905
-3 907 -26 987 -47 169 -138 322 -259 435 -116 110 -247 184 -398 226 -87 23
-310 28 -400 8z"/>
</g>
</svg>
